<?xml version="1.0" encoding="UTF-8"?>
<svg id="Layer_1" xmlns="http://www.w3.org/2000/svg" version="1.1" viewBox="0 0 177 55">
  <!-- Generator: Adobe Illustrator 29.5.1, SVG Export Plug-In . SVG Version: 2.1.0 Build 141)  -->
  <defs>
    <style>
      .st0 {
        fill: #2ea836;
      }

      .st1 {
        fill: #dd383a;
      }
    </style>
  </defs>
  <path class="st0" d="M40.5,25.3v14.3h-8.5v-13.3c-.2-2.1-.2-4.5-2.9-4.7-4.2-.3-4.3,2.7-4.7,6v12h-8.1v-13.6c-.2-2.2-.3-4.3-3-4.5-4.2-.3-4.6,3.1-4.7,6.4,0,.3,0,.6,0,.9,0,3.6,0,7.2,0,10.8H.4S.4,16.1.4,16.1h8.3v4h0c0,0,0,0,0,0,1.2-1.8,2.6-3.4,4.7-4.2,2.9-1.1,7.3-.7,9.4,1.7.6.7.9,1.5,1.3,2.2,1.5-2.4,3.9-4.1,6.7-4.3,2.9-.2,5.8.2,7.7,2.5,1.8,2.1,1.8,4.7,1.9,7.3Z"/>
  <path class="st1" d="M70.9,22.3c0,0-.1,0-.1-.2V7.4c-.2-2.3-1.9-4.2-4.3-4.4h-17.7c-2.1.2-3.8,1.9-4.1,4v40.8c.2,2.4,2.3,4.2,4.7,4.2,5.5-.2,11.2.3,16.6,0,2.5-.1,4.4-1.6,4.7-4.2,0-7.5,0-15,0-22.5.7-.6,1.3-1.3,1.8-2.1,0-.2-1.5-.7-1.8-.9ZM46.4,27.9h-.2c0,0,.2,0,.2,0h0ZM68.5,21l-5.7-2.7c-1.6,2.8-3.5,5.4-6.1,7.4,0,0-.1,0-.2,0-2.9,2.1-5.3,2.8-8.9,2.5.8.3,1.7.4,2.6.6,4.6.8,9.8,1.1,14.3-.2,1.4-.4,2.7-.9,3.9-1.6v18.3h-21.7v-17.3c-.1,0-.3-.2-.4-.2,0,0,.3,0,.4,0V7.9h21.7v13.2Z"/>
  <path class="st0" d="M88.8,15.5c-2.9.4-5,2.1-6.6,4.4v-3.8h-7.3v32.7h7.6v-.2c.1,0,.1-10.5.1-10.5l-.2-2.8,1,1.3c3.9,4.8,11.8,3.7,15-1.4,4.7-7.5,1.2-21-9.5-19.7ZM86.4,33.1c-5.9-.4-6-10.8,0-11.4,3.2-.3,5.6,1.5,5.9,4.8.3,4-1.6,6.9-5.9,6.6Z"/>
  <path class="st0" d="M169.3,16v3.7l-1.2-1.6c-3.7-4.3-10.9-3.4-14.3.8-3.8,4.7-3.5,14.3,1.1,18.4,3.7,3.2,10.1,2.9,13.3-.9l1.1-1.4v3.7h7.3v-22.6h-7.3ZM169.5,28.8c-.6,3.1-3.2,4.6-6.2,4.1-5.8-.9-5.5-10.8.3-11.3,4.6-.5,6.7,3.1,5.9,7.2Z"/>
  <path class="st0" d="M121.8,17.2c-3.9-2.5-9.9-2.5-13.8,0-4.5,2.8-6.5,8-5.4,13.2,1.5,7.2,8.6,9.8,15.3,9,3.3-.4,6.6-2,8-5.2l-6-2.4c-.8,1.7-2.5,2.5-4.3,2.6-3.5.2-5.7-1.8-5.6-5.4h17.1c.1-4.6-1.3-9.2-5.3-11.8ZM110.2,24.4c.3-1.7,1.2-3.4,2.9-4,3-1,5.8.9,6.2,4h-9.1Z"/>
  <path class="st0" d="M147.4,36.7c-2.9,3.1-7.9,3.2-11.9,2.5-2.2-.4-4.4-1.3-6.3-2.4l1.7-6.1c2.5,2,5.5,3.3,8.8,3,.8,0,1.8-.3,2.2-1.1,1.1-2.5-3.6-3-5.1-3.5-3.6-1.1-6.7-2.8-6.4-7,.2-3.7,3-5.9,6.4-6.6,3.5-.7,7.2,0,10.5,1.3.3,0,1,.4,1.2.5,0,0,.1.1.1.2l-1.6,5.3c-1.3-.8-2.6-1.5-4.1-1.9-1.4-.3-5.4-.9-5,1.5,0,.7,1.1,1.1,1.6,1.4,2.6,1.1,5.4,1.2,7.8,3,2.9,2.3,2.8,7.1.3,9.7Z"/>
  <path class="st0" d="M8.7,20.1h0c0,0,0,0,0,0h0Z"/>
  <path class="st1" d="M56.6,25.8c-2.9,2.1-5.3,2.8-8.9,2.5,0,0,0,0-.1,0,0,0,0,0-.1,0-.2,0-.2,0-.3,0h0c0-.2-.2-.1-.3-.1-.1,0-.3-.2-.4-.2,0,0,.3,0,.4,0,3,0,5.4-2.3,7-4.7h.1c.6,1.1,1.5,2,2.5,2.6Z"/>
  <path class="st1" d="M46.4,27.8h-.2c0,0,.2,0,.2,0h0Z"/>
  <path class="st1" d="M47.5,28.3c0,0-.1,0-.2,0h0s.1,0,.1,0Z"/>
</svg>